<?xml version="1.0" encoding="UTF-8" standalone="no"?>
<!DOCTYPE svg PUBLIC "-//W3C//DTD SVG 1.1//EN" "http://www.w3.org/Graphics/SVG/1.1/DTD/svg11.dtd">
<svg version="1.1" xmlns="http://www.w3.org/2000/svg" xmlns:xlink="http://www.w3.org/1999/xlink" preserveAspectRatio="xMidYMid meet" viewBox="0 0 640 640" width="640" height="640"><defs><path d="M228.44 615.3C228.44 614.25 228.33 604.77 228.15 586.86C227.94 568.95 227.86 553.33 227.86 539.99C226.51 540.22 215.76 541.9 214.43 542.1C205.88 543.52 195.07 544.11 182.03 543.95C168.99 543.78 155.48 542.54 141.46 540.25C127.45 537.98 114.42 532.72 102.36 524.46C90.3 516.23 81.74 505.43 76.67 492.09C76.09 490.87 71.43 481.18 70.83 479.98C66.94 471.91 60.82 462.95 52.45 453.13C44.08 443.29 35.62 436.62 27.07 433.11C26.66 432.85 23.38 430.75 22.97 430.47C20.25 428.72 17.73 426.61 15.38 424.16C13.05 421.7 11.31 419.24 10.14 416.79C8.97 414.31 9.93 412.3 13.07 410.71C16.18 409.12 21.81 408.37 29.97 408.37C31.16 408.51 40.5 409.77 41.66 409.94C49.44 411.34 59.06 415.55 70.55 422.57C82.03 429.58 91.47 438.71 98.86 449.93C107.8 464.34 118.59 475.31 131.26 482.86C143.89 490.41 156.65 494.18 169.48 494.18C182.32 494.18 193.41 493.29 202.77 491.56C212.08 489.8 220.84 487.16 229.03 483.65C232.53 460.11 242.07 442.05 257.63 429.4C235.44 427.31 215.5 424.14 197.79 419.93C180.08 415.72 161.8 408.87 142.93 399.37C124.04 389.9 108.38 378.14 95.93 364.1C83.48 350.07 73.27 331.62 65.29 308.82C57.32 285.99 53.33 259.68 53.33 229.84C53.33 187.34 68.7 151.19 99.45 121.35C85.04 89.42 86.41 53.61 103.52 13.95C114.8 10.77 131.55 13.15 153.74 21.06C175.91 28.94 192.16 35.72 202.48 41.33C212.8 46.93 221.05 51.69 227.29 55.53C263.48 46.41 300.84 41.85 339.34 41.85C377.87 41.85 415.25 46.41 451.44 55.53C453.65 54.28 471.4 44.18 473.61 42.9C488.78 34.48 506.69 26.76 527.3 19.73C547.94 12.71 563.7 10.79 574.61 13.95C592.11 53.61 593.67 89.42 579.26 121.36C610 151.21 625.4 187.36 625.4 229.84C625.4 259.68 621.38 286.08 613.42 309.07C605.44 332.08 595.14 350.49 582.49 364.36C569.84 378.25 554.08 389.92 535.2 399.39C516.33 408.87 498.03 415.72 480.34 419.93C462.62 424.14 442.68 427.31 420.51 429.42C440.73 445.21 450.85 470.14 450.85 504.19C450.85 515.29 450.85 604.16 450.85 615.28C450.85 621.6 453.28 626.86 458.15 631.07C463.03 635.28 215.8 635.28 220.86 631.09C225.92 626.88 228.44 621.6 228.44 615.3Z" id="donsJVC2g"></path><path d="M228.44 615.3C228.44 614.25 228.33 604.77 228.15 586.86C227.94 568.95 227.86 553.33 227.86 539.99C226.51 540.22 215.76 541.9 214.43 542.1C205.88 543.52 195.07 544.11 182.03 543.95C168.99 543.78 155.48 542.54 141.46 540.25C127.45 537.98 114.42 532.72 102.36 524.46C90.3 516.23 81.74 505.43 76.67 492.09C76.09 490.87 71.43 481.18 70.83 479.98C66.94 471.91 60.82 462.95 52.45 453.13C44.08 443.29 35.62 436.62 27.07 433.11C26.66 432.85 23.38 430.75 22.97 430.47C20.25 428.72 17.73 426.61 15.38 424.16C13.05 421.7 11.31 419.24 10.14 416.79C8.97 414.31 9.93 412.3 13.07 410.71C16.18 409.12 21.81 408.37 29.97 408.37C31.16 408.51 40.5 409.77 41.66 409.94C49.44 411.34 59.06 415.55 70.55 422.57C82.03 429.58 91.47 438.71 98.86 449.93C107.8 464.34 118.59 475.31 131.26 482.86C143.89 490.41 156.65 494.18 169.48 494.18C182.32 494.18 193.41 493.29 202.77 491.56C212.08 489.8 220.84 487.16 229.03 483.65C232.53 460.11 242.07 442.05 257.63 429.4C235.44 427.31 215.5 424.14 197.79 419.93C180.08 415.72 161.8 408.87 142.93 399.37C124.04 389.9 108.38 378.14 95.93 364.1C83.48 350.07 73.27 331.62 65.29 308.82C57.32 285.99 53.33 259.68 53.33 229.84C53.33 187.34 68.7 151.19 99.45 121.35C85.04 89.42 86.41 53.61 103.52 13.95C114.8 10.77 131.55 13.15 153.74 21.06C175.91 28.94 192.16 35.72 202.48 41.33C212.8 46.93 221.05 51.69 227.29 55.53C263.48 46.41 300.84 41.85 339.34 41.85C377.87 41.85 415.25 46.41 451.44 55.53C453.65 54.28 471.4 44.18 473.61 42.9C488.78 34.48 506.69 26.76 527.3 19.73C547.94 12.71 563.7 10.79 574.61 13.95C592.11 53.61 593.67 89.42 579.26 121.36C610 151.21 625.4 187.36 625.4 229.84C625.4 259.68 621.38 286.08 613.42 309.07C605.44 332.08 595.14 350.49 582.49 364.36C569.84 378.25 554.08 389.92 535.2 399.39C516.33 408.87 498.03 415.72 480.34 419.93C462.62 424.14 442.68 427.31 420.51 429.42C440.73 445.21 450.85 470.14 450.85 504.19C450.85 515.29 450.85 604.16 450.85 615.28C450.85 621.6 453.28 626.86 458.15 631.07C463.03 635.28 215.8 635.28 220.86 631.09C225.92 626.88 228.44 621.6 228.44 615.3Z" id="box01eQVq"></path></defs><g><g><g><use xlink:href="#donsJVC2g" opacity="1" fill="#ffffff" fill-opacity="1"></use><g><use xlink:href="#donsJVC2g" opacity="1" fill-opacity="0" stroke="#000000" stroke-width="1" stroke-opacity="0"></use></g></g><g><use xlink:href="#box01eQVq" opacity="1" fill="#000000" fill-opacity="0"></use><g><use xlink:href="#box01eQVq" opacity="1" fill-opacity="0" stroke="#000000" stroke-width="1" stroke-opacity="0"></use></g></g></g></g></svg>